PathFileType	3	(X/Y/Z)	C:\Users\koon_\Desktop\
DataRate	CameraRate	NumFrames	NumMarkers	Units	OrigDataRate	OrigDataStartFrame	OrigNumFrames
100.0	100.0	9	27	mm	100.0	2256	3007	
Frame#	Time	get:LFHD			get:RFHD			get:LBHD			get:RBHD			get:C7			get:T10			get:CLAV			get:STRN			get:RBAK			get:LSHO			get:LUPA			get:LELB			get:LFRA			get:LWRA			get:LWRB			get:LFIN			get:RSHO			get:RUPA			get:RELB			get:RFRA			get:RWRA			get:RWRB			get:RFIN			get:LASI			get:RASI			get:LPSI			get:RPSI			
		X1	Y1	Z1	X2	Y2	Z2	X3	Y3	Z3	X4	Y4	Z4	X5	Y5	Z5	X6	Y6	Z6	X7	Y7	Z7	X8	Y8	Z8	X9	Y9	Z9	X10	Y10	Z10	X11	Y11	Z11	X12	Y12	Z12	X13	Y13	Z13	X14	Y14	Z14	X15	Y15	Z15	X16	Y16	Z16	X17	Y17	Z17	X18	Y18	Z18	X19	Y19	Z19	X20	Y20	Z20	X21	Y21	Z21	X22	Y22	Z22	X23	Y23	Z23	X24	Y24	Z24	X25	Y25	Z25	X26	Y26	Z26	X27	Y27	Z27	
2256	22.55	-308.13596	1455.8956	26.15864	-362.34982	1309.1182	5.8799005	-309.12683	1466.2433	-99.129837	-363.59668	1355.1914	-132.33018	-154.43805	1342.8844	-159.78806	-9.9719439	1140.6495	-239.70729	-141.44292	1217.316	-0.28130814	-37.612709	1062.0717	10.271365	-178.46883	1248.5629	-222.13251	-44.135021	1381.0676	-18.288233	64.155533	1275.0494	18.93829	165.3524	1119.1721	10.02388	129.09491	998.7337	33.146969	136.16782	901.74188	26.058067	201.42841	914.56787	43.824543	183.98895	830.48596	69.828239	-282.06934	1224.2581	-125.81374	-284.69965	995.44611	-141.33882	-249.16025	898.70966	-195.51933	-260.22354	827.24054	-118.46206	-227.85057	677.42291	-90.992363	-234.91924	677.06067	-166.20088	-257.86429	607.32416	-113.52591	146.94586	941.10504	-54.917725	-127.34352	909.63086	-75.087753	76.62365	974.42706	-258.39929	-29.665615	953.5014	-271.71902
2257	22.56	-302.37399	1460.7791	26.221111	-360.09659	1315.7853	5.9791546	-303.29337	1471.6008	-98.983322	-360.36398	1361.9487	-132.46358	-151.70775	1344.7131	-160.27037	-9.435709	1140.5437	-239.61459	-139.91048	1219.527	-0.57499284	-37.731682	1063.0623	10.583364	-176.86348	1250.4347	-222.19179	-40.56786	1382.041	-19.080898	66.95713	1275.0645	17.981636	166.77962	1118.3784	9.2261868	129.96567	998.21686	33.125198	136.4821	901.112	26.359221	201.98346	913.76837	43.640388	184.34657	829.85272	70.078018	-280.62604	1227.507	-126.08295	-284.55692	998.64703	-141.35138	-249.61411	901.54095	-194.68021	-260.58572	830.35168	-117.35275	-228.51752	680.45172	-89.617767	-236.06494	679.96161	-164.92242	-258.81964	610.49591	-112.76595	146.30765	940.74841	-54.286503	-128.38092	909.88696	-74.856575	76.182793	974.20953	-257.7666	-30.23698	953.4071	-270.96298
2258	22.57	-296.45676	1465.7086	26.19886	-357.65921	1321.9747	5.7253575	-297.29144	1477.1791	-98.99865	-356.89444	1369.0077	-133.04803	-148.88364	1346.5933	-160.88484	-8.8955364	1140.391	-239.43355	-138.30066	1221.7108	-0.93006116	-37.930008	1064.1239	10.870119	-175.22443	1252.473	-222.48882	-37.009914	1382.9169	-19.984552	69.708191	1275.0015	17.080618	168.18445	1117.4967	8.3845282	130.90373	997.65442	33.109375	136.80188	900.46606	26.691626	202.51381	912.87775	43.410744	184.66779	829.19794	70.322952	-279.16904	1230.8315	-126.28812	-284.4957	1001.9099	-140.02872	-250.14931	904.39355	-193.82124	-260.98035	833.43762	-116.27336	-229.21576	683.48761	-88.204201	-237.19043	682.88043	-163.44334	-259.92493	613.4375	-110.04638	145.36211	940.23541	-53.35939	-129.41341	910.23535	-74.518478	75.693924	973.94409	-256.98846	-30.784035	953.49744	-270.42383
2259	22.58	-290.3504	1470.6741	26.102875	-355.08469	1328.6064	5.4718657	-290.94379	1482.3702	-98.969437	-353.35306	1375.8978	-133.32509	-146.00197	1348.4025	-161.46053	-8.3617115	1140.2556	-239.28886	-136.61487	1223.9437	-1.1734195	-38.123642	1065.1823	11.224839	-173.50502	1254.4293	-222.64775	-33.320408	1383.8093	-20.877069	72.408279	1274.8809	16.067024	169.53261	1116.5975	7.532115	131.68797	997.06842	33.097618	137.11543	899.78766	26.997438	203.05505	911.95721	43.151905	184.98355	828.41461	70.482307	-277.52228	1234.2499	-126.43439	-284.25827	1005.1498	-140.07497	-250.37671	907.56909	-193.10576	-261.30991	836.66028	-115.07642	-229.8705	686.59955	-86.772705	-238.33685	685.86658	-161.99254	-261.00214	616.64886	-108.10477	143.24095	939.84167	-51.550297	-130.51332	910.60101	-74.142189	75.15847	973.7254	-256.34512	-31.470369	953.5788	-269.86734
2260	22.59	-284.10315	1475.6305	25.967613	-352.34729	1335.5206	4.674407	-284.59589	1487.8751	-99.103973	-349.44922	1382.7371	-133.37396	-143.07845	1350.2554	-162.05534	-7.8737354	1140.0613	-239.16887	-134.93484	1226.2135	-1.5465399	-38.318218	1066.2404	11.687711	-171.79428	1256.4742	-222.97093	-29.598644	1384.6758	-21.792065	75.150589	1274.7137	15.106849	170.88586	1115.6014	6.6714478	132.50156	996.43781	33.055904	137.33263	899.01025	27.248892	203.44505	910.9859	42.967281	185.14212	827.57861	70.71524	-275.9892	1237.6731	-126.64349	-284.05286	1008.474	-138.81679	-251.01649	910.50964	-192.12642	-261.65091	839.94775	-113.83537	-230.53705	689.86682	-85.395111	-239.49091	688.83026	-160.34865	-261.98874	619.94373	-106.18336	142.1667	939.44775	-50.564671	-131.62309	910.96423	-73.749435	74.551903	973.45282	-255.62202	-32.278587	952.8266	-267.74323
2261	22.6	-277.67352	1480.6157	25.72036	-349.50983	1342.2288	4.8821611	-277.93463	1493.0801	-99.307579	-345.50061	1389.7682	-133.83118	-140.07848	1352.087	-162.61014	-7.4411607	1139.8563	-239.00389	-133.25114	1228.4556	-1.8897859	-38.619953	1067.3042	11.856103	-170.00246	1258.5476	-223.39539	-25.86079	1385.4761	-22.751474	77.954674	1274.5525	14.231495	172.21439	1114.5496	5.951242	133.2265	995.71204	33.049679	137.46974	898.25433	27.562696	203.75914	909.95953	42.784199	185.48027	826.81415	71.077599	-274.30194	1241.1746	-126.78531	-283.82834	1011.9139	-138.11407	-251.56033	913.65021	-191.31213	-261.94901	843.28949	-112.54946	-231.14941	693.18262	-83.867966	-240.72987	691.84882	-158.60452	-263.10733	623.30084	-104.22287	141.07259	939.11609	-49.618122	-132.77733	911.31116	-73.368896	73.890358	973.16351	-255.09068	-33.009083	953.17322	-267.89838
2262	22.61	-271.07861	1485.6017	25.37245	-346.50381	1349.1738	4.5525661	-271.04913	1498.0386	-99.552544	-341.16196	1396.7551	-134.35854	-137.078	1353.8546	-163.22502	-6.9801931	1139.6377	-238.89897	-131.46959	1230.7144	-2.1850319	-38.856449	1068.4166	12.854648	-168.20239	1260.6298	-223.71809	-21.996254	1386.2236	-23.697744	80.71283	1274.2227	13.241025	173.71439	1113.5858	5.2250896	133.96133	995.01056	33.003445	137.54698	897.36353	27.755936	204.04147	908.84821	42.638397	185.54906	825.8501	71.36869	-272.64349	1244.6946	-126.99616	-283.53946	1015.5227	-137.92699	-252.35861	916.43719	-189.97076	-262.18982	846.68103	-111.30099	-231.76118	696.54089	-82.281342	-241.92197	695.12469	-157.16525	-264.10004	626.85632	-103.19598	139.99451	938.72064	-48.751537	-133.94038	911.56262	-72.996284	73.203514	972.84552	-254.49747	-33.899906	953.01459	-266.97855
2263	22.62	-264.34518	1490.5042	24.936213	-343.24539	1356.0892	3.7486763	-264.11469	1503.2421	-99.95713	-336.83109	1403.6227	-134.80063	-134.02525	1355.6195	-163.84721	-6.5485144	1139.3569	-238.80164	-129.74469	1232.9576	-2.5512738	-39.166	1069.3986	12.845097	-166.43567	1262.697	-224.11937	-18.160517	1386.887	-24.643742	83.514603	1273.8986	12.221292	174.88658	1112.2942	4.4203191	134.63358	994.23102	32.974495	137.60045	896.48236	27.959026	204.21945	907.68555	42.43605	185.53685	824.84137	71.481354	-270.94424	1248.2594	-127.17767	-283.15036	1018.9439	-136.57692	-252.91496	919.55347	-188.83574	-262.46481	850.13507	-109.95561	-232.32048	699.91888	-80.815651	-243.18413	698.38165	-155.53136	-265.19586	630.1936	-100.18118	138.15172	938.16577	-47.41127	-135.11346	911.81964	-72.679321	72.431931	972.42755	-253.78796	-34.816589	952.91095	-266.1395
2264	22.63	-257.49484	1495.4205	24.475502	-339.79785	1363.1836	2.8276348	-257.02438	1508.1058	-100.44312	-332.27573	1410.3126	-135.04958	-130.91313	1357.3174	-164.51297	-6.1901536	1139.0895	-238.65866	-128.02306	1235.1595	-2.9056776	-39.420643	1070.5911	14.108601	-164.62344	1264.7003	-224.39859	-14.262904	1387.5289	-25.635332	86.280083	1273.5016	11.276157	176.11435	1111.0314	3.7012997	135.23228	993.32404	32.885662	137.54552	895.50549	28.078211	204.3483	906.39362	42.273991	185.37595	823.79224	71.756752	-269.20889	1251.8251	-127.4007	-282.90228	1022.7161	-136.34991	-253.54358	922.70026	-187.7733	-262.69882	853.65149	-108.63416	-232.92805	703.38184	-79.282356	-244.39307	701.71576	-153.92169	-266.2319	633.65887	-98.08931	136.8665	937.79401	-46.446957	-136.30981	912.06799	-72.262405	71.654068	972.0141	-253.05479	-35.736137	952.79779	-265.49844
